<svg data-v-d3f97b9e="" xmlns="http://www.w3.org/2000/svg" viewBox="0 0 652 449"><!----><!----><!----><g data-v-d3f97b9e="" id="07c7e70a-0546-482c-8c54-91cec874c471" fill="#000000" transform="matrix(6.006006143610182,0,0,6.006006143610182,352.18830097999637,170.5461014420242)"><path d="M8.06 6.83L5.60 6.83L2.77 9.21L2.60 9.21L2.60 3.98L0.84 3.98L0.84 13.78L2.60 13.78L2.60 11.38L3.67 10.50L5.91 13.78L7.95 13.78L4.91 9.45ZM8.23 6.83L8.23 8.37L10.00 8.37L10.00 12.43C10.00 13.22 10.58 13.78 11.37 13.78L13.27 13.78L13.27 12.24L12.15 12.24C11.90 12.24 11.76 12.10 11.76 11.82L11.76 8.37L13.66 8.37L13.66 6.83L11.76 6.83L11.76 4.68L10.00 4.68L10.00 6.83ZM21.73 13.78L21.73 6.83L19.96 6.83L19.96 10.42C19.96 11.65 19.36 12.35 18.23 12.35C17.22 12.35 16.66 11.77 16.66 10.81L16.66 6.83L14.90 6.83L14.90 10.98C14.90 12.78 16.06 13.89 17.60 13.89C18.87 13.89 19.52 13.30 19.80 12.66L19.99 12.66L19.99 13.78ZM23.41 6.83L23.41 13.78L25.17 13.78L25.17 10.19C25.17 8.96 25.77 8.26 26.91 8.26C27.92 8.26 28.48 8.83 28.48 9.80L28.48 13.78L30.24 13.78L30.24 9.63C30.24 7.83 29.08 6.72 27.54 6.72C26.26 6.72 25.62 7.31 25.34 7.95L25.14 7.95L25.14 6.83ZM31.84 6.83L31.84 13.78L33.60 13.78L33.60 10.19C33.60 8.96 34.20 8.26 35.34 8.26C36.34 8.26 36.90 8.83 36.90 9.80L36.90 13.78L38.67 13.78L38.67 9.63C38.67 7.83 37.51 6.72 35.97 6.72C34.69 6.72 34.05 7.31 33.77 7.95L33.57 7.95L33.57 6.83ZM39.84 10.25C39.84 12.40 41.34 13.97 43.41 13.97C45.28 13.97 46.09 12.99 46.56 12.26L45.05 11.40C44.81 11.89 44.37 12.43 43.39 12.43C42.38 12.43 41.72 11.72 41.68 10.82L46.82 10.82L46.82 10.14C46.82 8.05 45.40 6.64 43.39 6.64C41.34 6.64 39.84 8.15 39.84 10.25ZM41.69 9.59C41.80 8.76 42.38 8.18 43.37 8.18C44.28 8.18 44.90 8.74 45.00 9.59ZM49.84 3.98L48.08 3.98L48.08 13.78L49.84 13.78Z"></path></g><linearGradient data-v-d3f97b9e="" gradientTransform="rotate(25)" id="61801bd2-8ef5-4892-afe8-6c8d8927ff18" x1="0%" y1="0%" x2="100%" y2="0%"><stop data-v-d3f97b9e="" offset="0%" style="stop-color: rgb(90, 90, 45); stop-opacity: 1;"></stop><stop data-v-d3f97b9e="" offset="100%" style="stop-color: rgb(13, 227, 13); stop-opacity: 1;"></stop></linearGradient><g data-v-d3f97b9e="" id="c86d929b-230a-4e0d-a1fd-199097c4c7a7" transform="matrix(2.2333333333333334,0,0,2.2333333333333334,0.38333333333332575,0.549999999999983)" stroke="none" fill="url(#61801bd2-8ef5-4892-afe8-6c8d8927ff18)"><path d="M84 23l8 24h-1l-2-4-3 4h-4l2 4-1 4 5-1 4 3v-5l1-1 11 34-7 2-12-7-1 14-11 10 13 6 6 13 10-11 11-1 20 60c12 3 18 7 18 12 0 10-34 18-75 18-42 0-76-8-76-18 0-5 7-9 19-12l31-90 3 6 8-9 11-1-6-10 3-11-11 2 12-34V0l14 6v17zm25 75zm-71 27l13 8 14-4-3 14 8 13-15 2-9 11-6-14-14-5 11-10 1-15zm49 15l6 4 6-2-1 6 4 6-7 1-4 5-3-6-6-3 5-4v-7zm-27-30l-4-2-4 1v-5l-2-4h5l2-4 2 5 5 1-4 3v5z"></path></g><!----></svg>