<svg data-v-d3f97b9e="" xmlns="http://www.w3.org/2000/svg" viewBox="0 0 45.07462686567164 60"><!----><!----><!----><!----><g data-v-d3f97b9e="" id="bb4a49e0-3344-4038-9301-6e47c2b92001" transform="matrix(0.29850746268656714,0,0,0.29850746268656714,-0.0000018788807416569853,3.552713678800501e-15)" stroke="none" fill="black"><path d="M84 23l8 24h-1l-2-4-3 4h-4l2 4-1 4 5-1 4 3v-5l1-1 11 34-7 2-12-7-1 14-11 10 13 6 6 13 10-11 11-1 20 60c12 3 18 7 18 12 0 10-34 18-75 18-42 0-76-8-76-18 0-5 7-9 19-12l31-90 3 6 8-9 11-1-6-10 3-11-11 2 12-34V0l14 6v17zm25 75zm-71 27l13 8 14-4-3 14 8 13-15 2-9 11-6-14-14-5 11-10 1-15zm49 15l6 4 6-2-1 6 4 6-7 1-4 5-3-6-6-3 5-4v-7zm-27-30l-4-2-4 1v-5l-2-4h5l2-4 2 5 5 1-4 3v5z"></path></g><!----></svg>