<svg data-v-29081953="" xmlns="http://www.w3.org/2000/svg" viewBox="0 0 300 300"><!----><defs data-v-29081953=""><!----></defs><rect data-v-29081953="" fill="transparent" x="0" y="0" width="300px" height="300px" class="logo-background-square"></rect><!----><defs data-v-29081953=""><linearGradient data-v-29081953="" gradientTransform="rotate(25)" id="838a0fd8-39ec-43dc-b974-9f9e0996431a" x1="0%" y1="0%" x2="100%" y2="0%"><stop data-v-29081953="" offset="0%" stop-color="#5A5A2D" stop-opacity="1"></stop><stop data-v-29081953="" offset="100%" stop-color="#0DE30D" stop-opacity="1"></stop></linearGradient></defs><g data-v-29081953="" id="6e615df5-194d-45e5-a976-e66aff3ab029" fill="url(#838a0fd8-39ec-43dc-b974-9f9e0996431a)" stroke="none" transform="matrix(1.0945273631840795,0,0,1.0945273631840795,67.363184079602,40.000000000000014)"><path d="M84 23l8 24h-1l-2-4-3 4h-4l2 4-1 4 5-1 4 3v-5l1-1 11 34-7 2-12-7-1 14-11 10 13 6 6 13 10-11 11-1 20 60c12 3 18 7 18 12 0 10-34 18-75 18-42 0-76-8-76-18 0-5 7-9 19-12l31-90 3 6 8-9 11-1-6-10 3-11-11 2 12-34V0l14 6v17zm25 75zm-71 27l13 8 14-4-3 14 8 13-15 2-9 11-6-14-14-5 11-10 1-15zm49 15l6 4 6-2-1 6 4 6-7 1-4 5-3-6-6-3 5-4v-7zm-27-30l-4-2-4 1v-5l-2-4h5l2-4 2 5 5 1-4 3v5z"></path></g><!----></svg>